<svg width="9" height="16" viewBox="0 0 9 16" fill="none" xmlns="http://www.w3.org/2000/svg">
<path id="Arrow 2" d="M2.5 9L3.5 9L3.5 7L2.5 7L2.5 9ZM0.792893 7.29289C0.402369 7.68342 0.402369 8.31658 0.792893 8.70711L7.15685 15.0711C7.54738 15.4616 8.18054 15.4616 8.57107 15.0711C8.96159 14.6805 8.96159 14.0474 8.57107 13.6569L2.91421 8L8.57107 2.34315C8.96159 1.95262 8.96159 1.31946 8.57107 0.928933C8.18054 0.538408 7.54738 0.538408 7.15685 0.928933L0.792893 7.29289ZM2.5 7L1.5 7L1.5 9L2.5 9L2.5 7Z" fill="#BDBDBD"/>
</svg>
