<svg width="9" height="16" viewBox="0 0 9 16" fill="none" xmlns="http://www.w3.org/2000/svg">
<path id="Arrow 3" d="M6.5 7L5.5 7L5.5 9L6.5 9L6.5 7ZM8.20711 8.70711C8.59763 8.31658 8.59763 7.68342 8.20711 7.29289L1.84314 0.928933C1.45262 0.538409 0.819455 0.538409 0.428931 0.928933C0.0384066 1.31946 0.0384067 1.95262 0.428931 2.34315L6.08579 8L0.428933 13.6569C0.0384089 14.0474 0.038409 14.6805 0.428933 15.0711C0.819458 15.4616 1.45262 15.4616 1.84315 15.0711L8.20711 8.70711ZM6.5 9L7.5 9L7.5 7L6.5 7L6.5 9Z" fill="#4F4F4F"/>
</svg>
